<mxfile host="app.diagrams.net" agent="Mozilla/5.0 (X11; Linux x86_64) AppleWebKit/537.36 (KHTML, like Gecko) Chrome/130.0.0.0 Safari/537.36" version="24.9.0">
  <diagram name="Page-1" id="sHQD6WukEjfyMdSKNWCW">
    <mxGraphModel dx="3031" dy="2876" grid="1" gridSize="10" guides="1" tooltips="1" connect="1" arrows="1" fold="1" page="1" pageScale="1" pageWidth="850" pageHeight="1100" math="0" shadow="0">
      <root>
        <mxCell id="0" />
        <mxCell id="1" parent="0" />
        <mxCell id="IM35Uppp1_HMmVyZBSX0-116" value="" style="whiteSpace=wrap;html=1;aspect=fixed;" vertex="1" parent="1">
          <mxGeometry x="180" y="-110" width="1380" height="1380" as="geometry" />
        </mxCell>
        <mxCell id="IM35Uppp1_HMmVyZBSX0-44" value="" style="whiteSpace=wrap;html=1;aspect=fixed;fillColor=none;labelBorderColor=default;" vertex="1" parent="1">
          <mxGeometry x="440" y="120" width="860" height="860" as="geometry" />
        </mxCell>
        <mxCell id="IM35Uppp1_HMmVyZBSX0-54" style="edgeStyle=orthogonalEdgeStyle;rounded=0;orthogonalLoop=1;jettySize=auto;html=1;exitX=1;exitY=1;exitDx=0;exitDy=0;exitPerimeter=0;entryX=0.5;entryY=1;entryDx=0;entryDy=0;" edge="1" parent="1" source="IM35Uppp1_HMmVyZBSX0-45" target="IM35Uppp1_HMmVyZBSX0-49">
          <mxGeometry relative="1" as="geometry" />
        </mxCell>
        <mxCell id="IM35Uppp1_HMmVyZBSX0-60" style="edgeStyle=orthogonalEdgeStyle;rounded=0;orthogonalLoop=1;jettySize=auto;html=1;exitX=0.5;exitY=0.5;exitDx=0;exitDy=0;exitPerimeter=0;" edge="1" parent="1" source="IM35Uppp1_HMmVyZBSX0-45" target="IM35Uppp1_HMmVyZBSX0-59">
          <mxGeometry relative="1" as="geometry" />
        </mxCell>
        <mxCell id="IM35Uppp1_HMmVyZBSX0-62" style="edgeStyle=orthogonalEdgeStyle;rounded=0;orthogonalLoop=1;jettySize=auto;html=1;exitX=0.5;exitY=0.5;exitDx=0;exitDy=0;exitPerimeter=0;" edge="1" parent="1" source="IM35Uppp1_HMmVyZBSX0-45" target="IM35Uppp1_HMmVyZBSX0-61">
          <mxGeometry relative="1" as="geometry" />
        </mxCell>
        <mxCell id="IM35Uppp1_HMmVyZBSX0-65" style="edgeStyle=orthogonalEdgeStyle;rounded=0;orthogonalLoop=1;jettySize=auto;html=1;exitX=0.5;exitY=0.5;exitDx=0;exitDy=0;exitPerimeter=0;" edge="1" parent="1" source="IM35Uppp1_HMmVyZBSX0-45" target="IM35Uppp1_HMmVyZBSX0-63">
          <mxGeometry relative="1" as="geometry" />
        </mxCell>
        <mxCell id="IM35Uppp1_HMmVyZBSX0-95" style="edgeStyle=orthogonalEdgeStyle;rounded=0;orthogonalLoop=1;jettySize=auto;html=1;exitX=0.5;exitY=0;exitDx=0;exitDy=0;exitPerimeter=0;" edge="1" parent="1" source="IM35Uppp1_HMmVyZBSX0-45" target="IM35Uppp1_HMmVyZBSX0-88">
          <mxGeometry relative="1" as="geometry" />
        </mxCell>
        <mxCell id="IM35Uppp1_HMmVyZBSX0-105" style="edgeStyle=orthogonalEdgeStyle;rounded=0;orthogonalLoop=1;jettySize=auto;html=1;exitX=1;exitY=0.3333333333333333;exitDx=0;exitDy=0;exitPerimeter=0;" edge="1" parent="1" source="IM35Uppp1_HMmVyZBSX0-45" target="IM35Uppp1_HMmVyZBSX0-104">
          <mxGeometry relative="1" as="geometry" />
        </mxCell>
        <mxCell id="IM35Uppp1_HMmVyZBSX0-45" value="Hosts" style="shape=umlActor;verticalLabelPosition=bottom;verticalAlign=top;html=1;outlineConnect=0;" vertex="1" parent="1">
          <mxGeometry x="240" y="700" width="30" height="60" as="geometry" />
        </mxCell>
        <mxCell id="IM35Uppp1_HMmVyZBSX0-58" style="edgeStyle=orthogonalEdgeStyle;rounded=0;orthogonalLoop=1;jettySize=auto;html=1;exitX=1;exitY=1;exitDx=0;exitDy=0;exitPerimeter=0;entryX=0;entryY=0;entryDx=0;entryDy=0;" edge="1" parent="1" source="IM35Uppp1_HMmVyZBSX0-46" target="IM35Uppp1_HMmVyZBSX0-56">
          <mxGeometry relative="1" as="geometry" />
        </mxCell>
        <mxCell id="IM35Uppp1_HMmVyZBSX0-64" style="edgeStyle=orthogonalEdgeStyle;rounded=0;orthogonalLoop=1;jettySize=auto;html=1;exitX=0.5;exitY=0.5;exitDx=0;exitDy=0;exitPerimeter=0;entryX=0;entryY=0.5;entryDx=0;entryDy=0;" edge="1" parent="1" source="IM35Uppp1_HMmVyZBSX0-46" target="IM35Uppp1_HMmVyZBSX0-63">
          <mxGeometry relative="1" as="geometry" />
        </mxCell>
        <mxCell id="IM35Uppp1_HMmVyZBSX0-89" style="edgeStyle=orthogonalEdgeStyle;rounded=0;orthogonalLoop=1;jettySize=auto;html=1;exitX=1;exitY=1;exitDx=0;exitDy=0;exitPerimeter=0;entryX=0;entryY=0.5;entryDx=0;entryDy=0;" edge="1" parent="1" source="IM35Uppp1_HMmVyZBSX0-46" target="IM35Uppp1_HMmVyZBSX0-88">
          <mxGeometry relative="1" as="geometry" />
        </mxCell>
        <mxCell id="IM35Uppp1_HMmVyZBSX0-91" style="edgeStyle=orthogonalEdgeStyle;rounded=0;orthogonalLoop=1;jettySize=auto;html=1;exitX=1;exitY=1;exitDx=0;exitDy=0;exitPerimeter=0;entryX=0;entryY=0;entryDx=0;entryDy=0;" edge="1" parent="1" source="IM35Uppp1_HMmVyZBSX0-46" target="IM35Uppp1_HMmVyZBSX0-90">
          <mxGeometry relative="1" as="geometry" />
        </mxCell>
        <mxCell id="IM35Uppp1_HMmVyZBSX0-97" style="edgeStyle=orthogonalEdgeStyle;rounded=0;orthogonalLoop=1;jettySize=auto;html=1;exitX=1;exitY=1;exitDx=0;exitDy=0;exitPerimeter=0;" edge="1" parent="1" source="IM35Uppp1_HMmVyZBSX0-46" target="IM35Uppp1_HMmVyZBSX0-94">
          <mxGeometry relative="1" as="geometry" />
        </mxCell>
        <mxCell id="IM35Uppp1_HMmVyZBSX0-101" style="edgeStyle=orthogonalEdgeStyle;rounded=0;orthogonalLoop=1;jettySize=auto;html=1;exitX=1;exitY=1;exitDx=0;exitDy=0;exitPerimeter=0;entryX=0;entryY=0.5;entryDx=0;entryDy=0;" edge="1" parent="1" source="IM35Uppp1_HMmVyZBSX0-46" target="IM35Uppp1_HMmVyZBSX0-100">
          <mxGeometry relative="1" as="geometry" />
        </mxCell>
        <mxCell id="IM35Uppp1_HMmVyZBSX0-106" style="edgeStyle=orthogonalEdgeStyle;rounded=0;orthogonalLoop=1;jettySize=auto;html=1;exitX=1;exitY=1;exitDx=0;exitDy=0;exitPerimeter=0;" edge="1" parent="1" source="IM35Uppp1_HMmVyZBSX0-46" target="IM35Uppp1_HMmVyZBSX0-104">
          <mxGeometry relative="1" as="geometry" />
        </mxCell>
        <mxCell id="IM35Uppp1_HMmVyZBSX0-46" value="Guests" style="shape=umlActor;verticalLabelPosition=bottom;verticalAlign=top;html=1;outlineConnect=0;" vertex="1" parent="1">
          <mxGeometry x="230" y="240" width="30" height="60" as="geometry" />
        </mxCell>
        <mxCell id="IM35Uppp1_HMmVyZBSX0-47" value="Airbnb Clone" style="text;html=1;align=center;verticalAlign=middle;whiteSpace=wrap;rounded=0;fontSize=17;" vertex="1" parent="1">
          <mxGeometry x="810" y="140" width="105" height="30" as="geometry" />
        </mxCell>
        <mxCell id="IM35Uppp1_HMmVyZBSX0-111" style="edgeStyle=orthogonalEdgeStyle;rounded=0;orthogonalLoop=1;jettySize=auto;html=1;exitX=0;exitY=0.3333333333333333;exitDx=0;exitDy=0;exitPerimeter=0;" edge="1" parent="1" source="IM35Uppp1_HMmVyZBSX0-48" target="IM35Uppp1_HMmVyZBSX0-107">
          <mxGeometry relative="1" as="geometry" />
        </mxCell>
        <mxCell id="IM35Uppp1_HMmVyZBSX0-114" style="edgeStyle=orthogonalEdgeStyle;rounded=0;orthogonalLoop=1;jettySize=auto;html=1;exitX=1;exitY=1;exitDx=0;exitDy=0;exitPerimeter=0;entryX=0;entryY=0.5;entryDx=0;entryDy=0;" edge="1" parent="1" source="IM35Uppp1_HMmVyZBSX0-48" target="IM35Uppp1_HMmVyZBSX0-110">
          <mxGeometry relative="1" as="geometry" />
        </mxCell>
        <mxCell id="IM35Uppp1_HMmVyZBSX0-48" value="Admins" style="shape=umlActor;verticalLabelPosition=bottom;verticalAlign=top;html=1;outlineConnect=0;" vertex="1" parent="1">
          <mxGeometry x="1440" y="260" width="30" height="60" as="geometry" />
        </mxCell>
        <mxCell id="IM35Uppp1_HMmVyZBSX0-49" value="&lt;font style=&quot;font-size: 10px;&quot;&gt;Signup&lt;/font&gt;" style="ellipse;whiteSpace=wrap;html=1;fillColor=none;" vertex="1" parent="1">
          <mxGeometry x="645" y="230" width="110" height="80" as="geometry" />
        </mxCell>
        <mxCell id="IM35Uppp1_HMmVyZBSX0-52" style="edgeStyle=orthogonalEdgeStyle;rounded=0;orthogonalLoop=1;jettySize=auto;html=1;exitX=1;exitY=0.3333333333333333;exitDx=0;exitDy=0;exitPerimeter=0;entryX=0.275;entryY=0.02;entryDx=0;entryDy=0;entryPerimeter=0;" edge="1" parent="1" source="IM35Uppp1_HMmVyZBSX0-46" target="IM35Uppp1_HMmVyZBSX0-49">
          <mxGeometry relative="1" as="geometry" />
        </mxCell>
        <mxCell id="IM35Uppp1_HMmVyZBSX0-56" value="&lt;font style=&quot;font-size: 10px;&quot;&gt;update their profiles&lt;/font&gt;" style="ellipse;whiteSpace=wrap;html=1;fillColor=none;" vertex="1" parent="1">
          <mxGeometry x="785" y="250" width="105" height="65" as="geometry" />
        </mxCell>
        <mxCell id="IM35Uppp1_HMmVyZBSX0-57" style="edgeStyle=orthogonalEdgeStyle;rounded=0;orthogonalLoop=1;jettySize=auto;html=1;exitX=1;exitY=0.3333333333333333;exitDx=0;exitDy=0;exitPerimeter=0;entryX=0.5;entryY=1;entryDx=0;entryDy=0;" edge="1" parent="1" source="IM35Uppp1_HMmVyZBSX0-45" target="IM35Uppp1_HMmVyZBSX0-56">
          <mxGeometry relative="1" as="geometry" />
        </mxCell>
        <mxCell id="IM35Uppp1_HMmVyZBSX0-59" value="&lt;font style=&quot;font-size: 10px;&quot;&gt;create property listings&lt;/font&gt;" style="ellipse;whiteSpace=wrap;html=1;fillColor=none;" vertex="1" parent="1">
          <mxGeometry x="720" y="490" width="120" height="70" as="geometry" />
        </mxCell>
        <mxCell id="IM35Uppp1_HMmVyZBSX0-61" value="&lt;font style=&quot;font-size: 10px;&quot;&gt;update or remove their property listings&lt;/font&gt;" style="ellipse;whiteSpace=wrap;html=1;fillColor=none;" vertex="1" parent="1">
          <mxGeometry x="600" y="560" width="120" height="70" as="geometry" />
        </mxCell>
        <mxCell id="IM35Uppp1_HMmVyZBSX0-63" value="Search Properties" style="ellipse;whiteSpace=wrap;html=1;fillColor=none;" vertex="1" parent="1">
          <mxGeometry x="520" y="330" width="120" height="80" as="geometry" />
        </mxCell>
        <mxCell id="IM35Uppp1_HMmVyZBSX0-66" value="Book Property" style="ellipse;whiteSpace=wrap;html=1;fillColor=none;" vertex="1" parent="1">
          <mxGeometry x="950" y="280" width="120" height="80" as="geometry" />
        </mxCell>
        <mxCell id="IM35Uppp1_HMmVyZBSX0-67" style="edgeStyle=orthogonalEdgeStyle;rounded=0;orthogonalLoop=1;jettySize=auto;html=1;exitX=0;exitY=1;exitDx=0;exitDy=0;exitPerimeter=0;entryX=0.222;entryY=0.886;entryDx=0;entryDy=0;entryPerimeter=0;" edge="1" parent="1" source="IM35Uppp1_HMmVyZBSX0-46" target="IM35Uppp1_HMmVyZBSX0-66">
          <mxGeometry relative="1" as="geometry" />
        </mxCell>
        <mxCell id="IM35Uppp1_HMmVyZBSX0-88" value="Cancel Booking&amp;nbsp;" style="ellipse;whiteSpace=wrap;html=1;fillColor=none;" vertex="1" parent="1">
          <mxGeometry x="980" y="440" width="120" height="80" as="geometry" />
        </mxCell>
        <mxCell id="IM35Uppp1_HMmVyZBSX0-90" value="Booking Status" style="ellipse;whiteSpace=wrap;html=1;fillColor=none;" vertex="1" parent="1">
          <mxGeometry x="920" y="560" width="120" height="80" as="geometry" />
        </mxCell>
        <mxCell id="IM35Uppp1_HMmVyZBSX0-94" value="View Booking Status" style="ellipse;whiteSpace=wrap;html=1;fillColor=none;" vertex="1" parent="1">
          <mxGeometry x="850" y="670" width="120" height="80" as="geometry" />
        </mxCell>
        <mxCell id="IM35Uppp1_HMmVyZBSX0-96" style="edgeStyle=orthogonalEdgeStyle;rounded=0;orthogonalLoop=1;jettySize=auto;html=1;exitX=0.75;exitY=0.1;exitDx=0;exitDy=0;exitPerimeter=0;entryX=0.257;entryY=0.034;entryDx=0;entryDy=0;entryPerimeter=0;" edge="1" parent="1" source="IM35Uppp1_HMmVyZBSX0-45" target="IM35Uppp1_HMmVyZBSX0-94">
          <mxGeometry relative="1" as="geometry" />
        </mxCell>
        <mxCell id="IM35Uppp1_HMmVyZBSX0-98" value="Pay for booking" style="ellipse;whiteSpace=wrap;html=1;fillColor=none;" vertex="1" parent="1">
          <mxGeometry x="920" y="360" width="120" height="80" as="geometry" />
        </mxCell>
        <mxCell id="IM35Uppp1_HMmVyZBSX0-99" style="edgeStyle=orthogonalEdgeStyle;rounded=0;orthogonalLoop=1;jettySize=auto;html=1;exitX=1;exitY=1;exitDx=0;exitDy=0;exitPerimeter=0;entryX=0.016;entryY=0.395;entryDx=0;entryDy=0;entryPerimeter=0;" edge="1" parent="1" source="IM35Uppp1_HMmVyZBSX0-46" target="IM35Uppp1_HMmVyZBSX0-98">
          <mxGeometry relative="1" as="geometry" />
        </mxCell>
        <mxCell id="IM35Uppp1_HMmVyZBSX0-100" value="&lt;font style=&quot;font-size: 10px;&quot;&gt;leave reviews and ratings for properties&lt;/font&gt;" style="ellipse;whiteSpace=wrap;html=1;fillColor=none;" vertex="1" parent="1">
          <mxGeometry x="710" y="350" width="140" height="82.5" as="geometry" />
        </mxCell>
        <mxCell id="IM35Uppp1_HMmVyZBSX0-102" value="Respond to reviews" style="ellipse;whiteSpace=wrap;html=1;fillColor=none;" vertex="1" parent="1">
          <mxGeometry x="1020" y="700" width="120" height="80" as="geometry" />
        </mxCell>
        <mxCell id="IM35Uppp1_HMmVyZBSX0-103" style="edgeStyle=orthogonalEdgeStyle;rounded=0;orthogonalLoop=1;jettySize=auto;html=1;exitX=1;exitY=1;exitDx=0;exitDy=0;exitPerimeter=0;entryX=0.042;entryY=0.619;entryDx=0;entryDy=0;entryPerimeter=0;" edge="1" parent="1" source="IM35Uppp1_HMmVyZBSX0-45" target="IM35Uppp1_HMmVyZBSX0-102">
          <mxGeometry relative="1" as="geometry" />
        </mxCell>
        <mxCell id="IM35Uppp1_HMmVyZBSX0-104" value="Receive email notifications" style="ellipse;whiteSpace=wrap;html=1;fillColor=none;" vertex="1" parent="1">
          <mxGeometry x="510" y="480" width="120" height="80" as="geometry" />
        </mxCell>
        <mxCell id="IM35Uppp1_HMmVyZBSX0-107" value="Monitor Users" style="ellipse;whiteSpace=wrap;html=1;fillColor=none;" vertex="1" parent="1">
          <mxGeometry x="1140" y="235" width="120" height="80" as="geometry" />
        </mxCell>
        <mxCell id="IM35Uppp1_HMmVyZBSX0-108" value="Manage Listings" style="ellipse;whiteSpace=wrap;html=1;fillColor=none;" vertex="1" parent="1">
          <mxGeometry x="1150" y="352.5" width="120" height="80" as="geometry" />
        </mxCell>
        <mxCell id="IM35Uppp1_HMmVyZBSX0-109" value="Manage Bookings" style="ellipse;whiteSpace=wrap;html=1;fillColor=none;" vertex="1" parent="1">
          <mxGeometry x="1155" y="480" width="120" height="80" as="geometry" />
        </mxCell>
        <mxCell id="IM35Uppp1_HMmVyZBSX0-110" value="Track Payments" style="ellipse;whiteSpace=wrap;html=1;fillColor=none;" vertex="1" parent="1">
          <mxGeometry x="1165" y="610" width="120" height="80" as="geometry" />
        </mxCell>
        <mxCell id="IM35Uppp1_HMmVyZBSX0-112" style="edgeStyle=orthogonalEdgeStyle;rounded=0;orthogonalLoop=1;jettySize=auto;html=1;exitX=0.5;exitY=0.5;exitDx=0;exitDy=0;exitPerimeter=0;entryX=0.976;entryY=0.384;entryDx=0;entryDy=0;entryPerimeter=0;" edge="1" parent="1" source="IM35Uppp1_HMmVyZBSX0-48" target="IM35Uppp1_HMmVyZBSX0-108">
          <mxGeometry relative="1" as="geometry" />
        </mxCell>
        <mxCell id="IM35Uppp1_HMmVyZBSX0-113" style="edgeStyle=orthogonalEdgeStyle;rounded=0;orthogonalLoop=1;jettySize=auto;html=1;exitX=0;exitY=1;exitDx=0;exitDy=0;exitPerimeter=0;entryX=0.979;entryY=0.33;entryDx=0;entryDy=0;entryPerimeter=0;" edge="1" parent="1" source="IM35Uppp1_HMmVyZBSX0-48" target="IM35Uppp1_HMmVyZBSX0-109">
          <mxGeometry relative="1" as="geometry" />
        </mxCell>
      </root>
    </mxGraphModel>
  </diagram>
</mxfile>
